American Idiots 2013 DVDRiP XViD AC3-BiTo


IMDB: http://www.imdb.com/title/tt1698651/


Source: DVD


Video
ID: 0
Format: MPEG-4 Visual
Format profile: Advanced Simple@L5
Format settings, BVOP: 1
Format settings, QPel: No
Format settings, GMC: No warppoints
Format settings, Matrix: Default (MPEG)
Codec ID: XVID
Codec ID/Hint: XviD
Duration: 1h 31mn
Bit rate: 1 550 Kbps
Width: 704 pixels
Height: 384 pixels
Display aspect ratio: 1.85:1
Frame rate: 23.976 fps
Color space: YUV
Chroma subsampling: 4:2:0
Bit depth: 8 bits
Scan type: Progressive
Compression mode: Lossy
Bits/(Pixel*Frame): 0.239
Stream size: 1 016 MiB (77%)
Writing library: XviD 1.2.1 (UTC 2008-12-04)


Audio
ID: 1
Format: AC-3
Format/Info: Audio Coding 3
Mode extension: CM (complete main)
Format settings, Endianness: Big
Codec ID: 2000
Duration: 1h 31mn
Bit rate mode: Constant
Bit rate: 448 Kbps
Channel(s): 6 channels
Channel positions: Front: L C R, Side: L R, LFE
Sampling rate: 48.0 KHz
Bit depth: 16 bits
Compression mode: Lossy
Stream size: 294 MiB (22%)
Alignment: Aligned on interleaves
Interleave, duration: 64 ms (1.53 video frames)
Interleave, preload duration: 192 ms
Title: VTS_01_1 T80 3_2ch 448Kbps DELAY 0ms_new


Poster:

 
http://i.imgur.com/t8AjdLC.jpg


Screenshots:

 
http://i.imgur.com/lV9yftZ.jpg


SEED AND ENJOY!